<svg width="39" height="34" viewBox="0 0 39 34" fill="none" xmlns="http://www.w3.org/2000/svg">
<path d="M34.4805 10.9805L18.8138 10.9805L18.8138 3.95792C18.8137 3.57066 18.6989 3.19211 18.4837 2.87014C18.2685 2.54817 17.9626 2.29723 17.6049 2.14905C17.2471 2.00086 16.8534 1.96208 16.4736 2.03761C16.0937 2.11314 15.7448 2.29958 15.471 2.57337L2.57337 15.471C2.20624 15.8382 2 16.3362 2 16.8555C2 17.3748 2.20624 17.8728 2.57337 18.24L15.471 31.1376C15.7448 31.4114 16.0937 31.5979 16.4736 31.6734C16.8534 31.7489 17.2471 31.7101 17.6049 31.562C17.9626 31.4138 18.2685 31.1628 18.4837 30.8409C18.6988 30.5189 18.8137 30.1403 18.8138 29.7531L18.8138 22.7305L34.4805 22.7305C34.9999 22.7305 35.498 22.5242 35.8652 22.1569C36.2325 21.7897 36.4388 21.2915 36.4388 20.7722L36.4388 12.9388C36.4388 12.4195 36.2325 11.9213 35.8652 11.5541C35.498 11.1868 34.9999 10.9805 34.4805 10.9805Z" stroke="white" stroke-width="3.91667" stroke-linecap="round" stroke-linejoin="round"/>
</svg>
