<svg width="35" height="40" viewBox="0 0 35 40" fill="none" xmlns="http://www.w3.org/2000/svg">
<path d="M11.625 4.83334V20.5H4.60242C4.21516 20.5001 3.83661 20.615 3.51464 20.8302C3.19267 21.0454 2.94173 21.3512 2.79355 21.709C2.64536 22.0668 2.60658 22.4605 2.68211 22.8403C2.75764 23.2201 2.94408 23.569 3.21787 23.8429L16.1155 36.7405C16.4827 37.1076 16.9807 37.3138 17.5 37.3138C18.0193 37.3138 18.5173 37.1076 18.8845 36.7405L31.7821 23.8429C32.0559 23.569 32.2424 23.2201 32.3179 22.8403C32.3934 22.4605 32.3546 22.0668 32.2065 21.709C32.0583 21.3512 31.8073 21.0454 31.4854 20.8302C31.1634 20.615 30.7848 20.5001 30.3976 20.5H23.375V4.83334C23.375 4.31396 23.1687 3.81585 22.8014 3.44859C22.4342 3.08133 21.936 2.87501 21.4167 2.87501H13.5833C13.064 2.87501 12.5658 3.08133 12.1986 3.44859C11.8313 3.81585 11.625 4.31396 11.625 4.83334Z" stroke="#600500" stroke-width="3.91667" stroke-linecap="round" stroke-linejoin="round"/>
</svg>
