<svg width="35" height="40" viewBox="0 0 35 40" fill="none" xmlns="http://www.w3.org/2000/svg">
<path d="M11.625 35.1667V19.5H4.60242C4.21516 19.4999 3.83661 19.385 3.51464 19.1698C3.19267 18.9546 2.94173 18.6488 2.79355 18.291C2.64536 17.9332 2.60658 17.5395 2.68211 17.1597C2.75764 16.7799 2.94408 16.431 3.21787 16.1571L16.1155 3.25953C16.4827 2.8924 16.9807 2.68616 17.5 2.68616C18.0193 2.68616 18.5173 2.8924 18.8845 3.25953L31.7821 16.1571C32.0559 16.431 32.2424 16.7799 32.3179 17.1597C32.3934 17.5395 32.3546 17.9332 32.2065 18.291C32.0583 18.6488 31.8073 18.9546 31.4854 19.1698C31.1634 19.385 30.7848 19.4999 30.3976 19.5H23.375V35.1667C23.375 35.686 23.1687 36.1841 22.8014 36.5514C22.4342 36.9187 21.936 37.125 21.4167 37.125H13.5833C13.064 37.125 12.5658 36.9187 12.1986 36.5514C11.8313 36.1841 11.625 35.686 11.625 35.1667Z" stroke="#600500" stroke-width="3.91667" stroke-linecap="round" stroke-linejoin="round"/>
</svg>
